<mxfile host="app.diagrams.net" agent="Mozilla/5.0 (Windows NT 10.0; Win64; x64) AppleWebKit/537.36 (KHTML, like Gecko) Chrome/131.0.0.0 Safari/537.36" version="24.8.2">
  <diagram name="Page-1" id="BpW7DbaHf9RSDpcA-_WN">
    <mxGraphModel dx="1434" dy="780" grid="1" gridSize="10" guides="1" tooltips="1" connect="1" arrows="1" fold="1" page="1" pageScale="1" pageWidth="1169" pageHeight="1654" math="0" shadow="0">
      <root>
        <mxCell id="0" />
        <mxCell id="1" parent="0" />
        <mxCell id="QwqvZDQPFDCLYdQFYXQy-1" value="CDN Server" style="image;aspect=fixed;perimeter=ellipsePerimeter;html=1;align=center;shadow=0;dashed=0;spacingTop=3;image=img/lib/active_directory/web_server.svg;" vertex="1" parent="1">
          <mxGeometry x="250" y="41.29" width="62.97" height="78.71" as="geometry" />
        </mxCell>
        <mxCell id="QwqvZDQPFDCLYdQFYXQy-4" style="edgeStyle=orthogonalEdgeStyle;rounded=0;orthogonalLoop=1;jettySize=auto;html=1;entryX=0;entryY=0.5;entryDx=0;entryDy=0;" edge="1" parent="1" source="QwqvZDQPFDCLYdQFYXQy-2" target="QwqvZDQPFDCLYdQFYXQy-1">
          <mxGeometry relative="1" as="geometry" />
        </mxCell>
        <mxCell id="QwqvZDQPFDCLYdQFYXQy-5" value="Websocket" style="edgeLabel;html=1;align=center;verticalAlign=middle;resizable=0;points=[];" vertex="1" connectable="0" parent="QwqvZDQPFDCLYdQFYXQy-4">
          <mxGeometry x="-0.2509" y="-2" relative="1" as="geometry">
            <mxPoint x="11" y="-13" as="offset" />
          </mxGeometry>
        </mxCell>
        <mxCell id="QwqvZDQPFDCLYdQFYXQy-2" value="Client&lt;div&gt;(Spectator)&lt;/div&gt;" style="sketch=0;outlineConnect=0;fontColor=#232F3E;gradientColor=none;fillColor=#232F3D;strokeColor=none;dashed=0;verticalLabelPosition=bottom;verticalAlign=top;align=center;html=1;fontSize=12;fontStyle=0;aspect=fixed;pointerEvents=1;shape=mxgraph.aws4.client;" vertex="1" parent="1">
          <mxGeometry x="40" y="41.29" width="80.79" height="78.71" as="geometry" />
        </mxCell>
        <mxCell id="QwqvZDQPFDCLYdQFYXQy-7" style="edgeStyle=orthogonalEdgeStyle;rounded=0;orthogonalLoop=1;jettySize=auto;html=1;entryX=1;entryY=0.5;entryDx=0;entryDy=0;" edge="1" parent="1" source="QwqvZDQPFDCLYdQFYXQy-6" target="QwqvZDQPFDCLYdQFYXQy-1">
          <mxGeometry relative="1" as="geometry" />
        </mxCell>
        <mxCell id="QwqvZDQPFDCLYdQFYXQy-8" value="Websocket" style="edgeLabel;html=1;align=center;verticalAlign=middle;resizable=0;points=[];" vertex="1" connectable="0" parent="QwqvZDQPFDCLYdQFYXQy-7">
          <mxGeometry x="0.2756" y="1" relative="1" as="geometry">
            <mxPoint x="11" y="-12" as="offset" />
          </mxGeometry>
        </mxCell>
        <mxCell id="QwqvZDQPFDCLYdQFYXQy-6" value="HLS Encoder&lt;div&gt;(Publisher)&lt;/div&gt;" style="image;aspect=fixed;perimeter=ellipsePerimeter;html=1;align=center;shadow=0;dashed=0;spacingTop=3;image=img/lib/active_directory/generic_server.svg;" vertex="1" parent="1">
          <mxGeometry x="440" y="41.29" width="44.08" height="78.71" as="geometry" />
        </mxCell>
      </root>
    </mxGraphModel>
  </diagram>
</mxfile>
